<?xml version="1.0" encoding="utf-8"?>
<!-- Generator: Adobe Illustrator 26.4.1, SVG Export Plug-In . SVG Version: 6.00 Build 0)  -->
<svg version="1.1" id="Layer_1" xmlns="http://www.w3.org/2000/svg" xmlns:xlink="http://www.w3.org/1999/xlink" x="0px" y="0px"
	 viewBox="0 0 283.69 109.61" style="enable-background:new 0 0 283.69 109.61;" xml:space="preserve">
<path d="M11.94,12.05l-0.68-1.91c0-1.61,1.05-2.8,3.16-3.55c1.47-0.53,3.23-0.79,5.3-0.79c3.53,0,5.84,0.23,6.93,0.68
	c0.98,0.38,1.63,1.24,1.97,2.59c0.79,2.93,1.33,4.73,1.63,5.41c0.45,1.32,0.92,2.63,1.41,3.95c0.79,1.92,1.54,2.88,2.25,2.88
	c1.01,0,1.75-1.63,2.2-4.9c0.26-2.07,0.53-4.15,0.79-6.26c0.56-1.92,1.73-3.17,3.49-3.78c1.01-0.34,2.82-0.53,5.41-0.56
	c5.86,0,8.79,1.32,8.79,3.95c0,0.68-0.54,1.62-1.61,2.82c-1.07,1.2-1.61,2.5-1.61,3.89c0,3.04,0.41,7.03,1.24,11.95
	c0.79,3.95,1.56,7.89,2.31,11.84c0.11,0.71,0.68,1.48,1.69,2.28c1.01,0.81,1.52,1.63,1.52,2.45c0,1.73-1.45,2.86-4.34,3.38
	c-1.28,0.26-3.35,0.39-6.2,0.39c-2.82,0-4.87-0.13-6.14-0.39c-2.82-0.53-4.23-1.63-4.23-3.33c0-0.53,0.18-0.98,0.54-1.35
	c0.36-0.38,0.7-0.74,1.04-1.1c0.34-0.36,0.64-1.62,0.9-3.8c0.23-1.92,0.34-3.36,0.34-4.34c0-1.95,0-2.99,0-3.1
	c-0.19-1.31-0.73-1.97-1.63-1.97c-0.45,0.04-0.85,0.7-1.18,1.97c-0.64,2.18-1,3.38-1.07,3.61c-0.56,1.32-1.28,1.97-2.14,1.97
	c-0.98,0-1.75-0.64-2.31-1.92c-0.19-0.38-0.55-1.58-1.07-3.61c-0.38-1.28-0.77-1.92-1.18-1.92c-0.94,0-1.45,2.27-1.52,6.8
	c0.34,1.27,0.64,2.1,0.9,2.47c0.49,0.53,1.01,1.09,1.55,1.69c0.54,0.6,0.82,1.2,0.82,1.8c0,1.69-0.19,2.96-0.56,3.82
	c-0.3,1.2-1.45,1.99-3.44,2.36c-0.75,0.15-1.7,0.24-2.85,0.28c-1.15,0.04-2.87,0.06-5.16,0.06c-4.21,0-7.01-0.42-8.4-1.27
	c-1.39-0.84-2.09-2.47-2.09-4.87c0-0.56,0.36-1.18,1.07-1.86c0.86-0.83,1.35-1.37,1.47-1.63c0.71-1.42,1.52-4.88,2.42-10.36
	c0.83-5.18,1.24-8.88,1.24-11.09C14.93,15.05,13.94,13.18,11.94,12.05z"/>
<path d="M102.65,42.93c-0.15,2.18-1.73,3.73-4.74,4.63c-1.95,0.64-4.34,0.96-7.16,0.96c-2.82,0-4.85-0.24-6.09-0.73
	c-2.07-0.79-3.1-2.33-3.1-4.62c0-0.86,0.13-1.84,0.39-2.93c1.69-1.69,2.54-4.28,2.54-7.78c0-1.2-0.83-2.12-2.48-2.76
	c-1.24-0.49-2.59-0.73-4.06-0.73l-1.58,0.28c-1.39,0.82-2.09,2.4-2.09,4.72c0,1.69,0.36,3.15,1.07,4.38c0.3,0.45,1,1.26,2.09,2.42
	c0.71,0.79,1.07,1.52,1.07,2.19c0,2.59-1.35,4.25-4.06,5c-1.32,0.37-3.7,0.56-7.16,0.56c-5.19,0-7.78-1.3-7.78-3.89
	c-0.04-2.29,0.96-4.15,2.99-5.58c2.37-1.69,4.45-5.32,6.26-10.88c1.54-4.85,2.31-9.08,2.31-12.68c0-1.39-0.24-2.56-0.73-3.49
	c-0.26-0.53-0.7-1.07-1.3-1.63c-0.49-0.45-0.73-0.79-0.73-1.01c0-1.24,2.01-2.31,6.03-3.21c3.42-0.75,5.92-1.05,7.5-0.9
	c2.67,0.26,4.7,1.07,6.09,2.43c0.64,0.64,1.58,2.11,2.82,4.4c0.38,0.75,0.85,2.22,1.41,4.4c2.18,8.69,4.38,15.24,6.6,19.64
	c0.3,0.64,0.86,1.29,1.69,1.95c0.83,0.66,1.37,1.19,1.63,1.61C102.54,40.45,102.72,41.54,102.65,42.93z M82.69,21.29
	c0-0.3-0.34-1.3-1.01-2.99C81.04,16.77,80.2,16,79.14,16c-0.64,0-1.32,0.81-2.03,2.42c-0.6,1.39-0.9,2.46-0.9,3.21
	c0,0.34,0.49,0.51,1.47,0.51c0.23,0,0.6-0.03,1.13-0.08c0.53-0.06,0.9-0.08,1.13-0.08c0.75,0,1.22,0.06,1.41,0.17
	C82.24,22.06,82.69,21.78,82.69,21.29z"/>
<path d="M147.27,33.11c2.59,0,3.89-1.24,3.89-3.74c0-0.83-0.86-1.98-2.59-3.45c-2.59-2.26-4.15-3.7-4.68-4.3
	c-1.73-1.92-2.59-3.85-2.59-5.77c0-3.43,1.37-6.15,4.11-8.15c2.44-1.77,5.43-2.66,8.96-2.66c1.13,0,2.75,0.22,4.88,0.65
	c2.12,0.43,3.77,0.65,4.93,0.65c2.03,0,3.04,2.33,3.04,6.99c0,2.67-1.05,4-3.16,4c-1.47,0-2.87-1.08-4.2-3.24
	c-1.33-2.16-2.62-3.24-3.86-3.24c-2.74,0-4.11,1-4.11,3c0,1.17,1.54,2.49,4.62,3.96c4.17,1.96,7.01,3.6,8.51,4.92
	c3.08,2.68,4.62,6.11,4.62,10.29c0,4.56-1.48,8.31-4.42,11.25c-2.95,2.94-6.68,4.41-11.19,4.41c-4.62,0-8.38-1.13-11.27-3.39
	c-3.19-2.45-4.79-5.94-4.79-10.46c0-2.26,1.16-3.39,3.49-3.39c0.75,0,1.53,0.28,2.34,0.85C144.61,32.83,145.77,33.11,147.27,33.11z"
	/>
<path d="M190.02,22.43c0.38,3.31,0.88,6.54,1.52,9.7c0.68,3.57,1.26,5.69,1.75,6.37c0.49,0.53,1.01,1.09,1.55,1.69
	c0.54,0.6,0.82,1.2,0.82,1.8c0,3.08-0.79,4.98-2.37,5.69c-1.2,0.56-4.42,0.85-9.64,0.85c-4.17,0-6.96-0.42-8.37-1.27
	c-1.41-0.85-2.11-2.48-2.11-4.89c0-0.57,0.36-1.19,1.07-1.87c0.86-0.83,1.35-1.38,1.47-1.64c0.56-1.09,1.22-3.83,1.97-8.2
	c0.75-4.18,1.26-7.94,1.52-11.25c0.08-0.87,0.15-2.9,0.23-6.11l-0.85-0.34c-0.49,0-0.92,0.46-1.3,1.38c-0.53,1.31-1,2.17-1.41,2.59
	c-0.86,0.92-2.12,1.38-3.78,1.38c-1.39,0-2.29-0.45-2.71-1.35c-0.26-0.56-0.39-1.65-0.39-3.27c0-1.69,0.51-3.46,1.52-5.3
	c1.13-2.14,2.42-3.21,3.89-3.21c0.53,0,1.31,0.12,2.37,0.37c1.05,0.24,1.84,0.37,2.37,0.37c6.31,0,10.54-0.06,12.68-0.17
	c0.19-0.03,0.45-0.14,0.79-0.31c0.34-0.17,0.64-0.26,0.9-0.26c1.58,0,2.93,1.03,4.06,3.09c0.98,1.76,1.47,3.52,1.47,5.28
	c0,3.18-1.2,4.77-3.61,4.77c-1.35,0-2.46-0.89-3.33-2.68c-0.87-1.78-1.73-2.68-2.59-2.68l-0.56,0.23c0.11,1.24,0.38,3.63,0.79,7.16
	L190.02,22.43z"/>
<path d="M203.61,16.23c-0.23-1.95-0.68-3.19-1.35-3.72c-0.34-0.19-0.81-0.47-1.41-0.84c-0.45-0.45-0.68-1.09-0.68-1.91
	c0-1.54,0.98-2.68,2.93-3.43c1.62-0.64,3.61-0.94,5.97-0.9c0.45,0,1.14,0.04,2.06,0.11c0.92,0.08,1.63,0.11,2.11,0.11
	c1.28,0,3.36-0.09,6.26-0.28c2.89-0.19,4.94-0.28,6.14-0.28c1.62,0,2.88,1.01,3.78,3.04c0.68,1.58,1.01,3.29,1.01,5.13
	c0,1.17-0.23,2.14-0.68,2.93c-0.6,0.98-1.43,1.47-2.48,1.47c-1.01,0-1.88-0.47-2.59-1.41c-1.05-1.39-1.86-2.27-2.42-2.65
	c-1.39-0.98-3.44-1.47-6.14-1.47c-0.79,0-1.2,0-1.24,0c-0.38,0.15-0.64,0.6-0.79,1.35c-0.08,0.26-0.11,0.53-0.11,0.79
	c0,1.24,0.62,2.25,1.86,3.04c1.09,0.68,2.39,1.01,3.89,1.01c0.3,0,0.67-0.21,1.1-0.62c0.43-0.41,0.8-0.62,1.1-0.62
	c0.56,0,0.85,0.41,0.85,1.24c0,1.32-0.17,2.57-0.51,3.78c-0.49,1.69-1.2,2.54-2.14,2.54c-0.6,0-1.17-0.47-1.72-1.41
	c-0.55-0.94-1.34-1.41-2.4-1.41c-1.2,0-1.8,1-1.8,2.99c0,4.7,2.72,7.05,8.17,7.05c0.23,0,0.58-0.06,1.07-0.17
	c0.49-0.11,0.86-0.13,1.13-0.06c0.26,0.04,0.49,0.06,0.68,0.06c0.94,0,1.72-0.45,2.34-1.35c0.62-0.9,1.12-1.35,1.49-1.35
	c0.56,0,1.05,0.38,1.47,1.13c0.41,0.75,0.62,1.45,0.62,2.09c0,0.38,0.05,1.34,0.14,2.9c0.09,1.56,0.14,2.85,0.14,3.86
	c0,4.58-0.94,7.55-2.82,8.91c-0.71,0.49-3.1,0.73-7.16,0.73c-1.13,0-2.67,0-4.62,0c-1.62,0.04-3.19,0.04-4.74,0l-10.6-0.06
	c-1.92-0.04-2.87-0.96-2.87-2.76c0-0.71,0.28-1.35,0.85-1.91c0.94-0.94,1.47-1.52,1.58-1.74l1.07-1.69c0.53-0.86,0.85-3,0.96-6.42
	l0.45-14.52C203.63,18.26,203.65,17.17,203.61,16.23z"/>
<path d="M250.1,28.24c0.79,5.34,1.6,8.57,2.42,9.7c0.49,0.53,1,1.09,1.52,1.69c0.53,0.6,0.79,1.2,0.79,1.8
	c0,3.08-0.77,4.98-2.31,5.69c-1.2,0.56-4.42,0.85-9.64,0.85c-4.28,0-7.13-0.4-8.54-1.21c-1.41-0.81-2.06-2.45-1.94-4.93
	c0.04-0.56,0.39-1.18,1.07-1.86c0.83-0.83,1.32-1.37,1.47-1.63c0.53-1.05,1.16-3.78,1.92-8.17c0.68-3.95,1.18-7.68,1.52-11.22
	c-0.11-3.83-0.62-6.12-1.52-6.88c-0.34-0.19-0.81-0.47-1.41-0.85c-0.45-0.45-0.68-1.09-0.68-1.92c0-1.54,0.98-2.69,2.93-3.44
	c1.58-0.64,3.57-0.94,5.97-0.9c0.86,0,1.65,0,2.37,0c3.34,0,5.45,0,6.31,0c3.12,0,5.86,0.62,8.23,1.86c2.93,1.5,4.4,3.67,4.4,6.52
	c0,3.56-1.92,6.39-5.75,8.49c0.38,1.16,1.18,2.02,2.42,2.59c1.84,0.83,2.78,1.24,2.82,1.24c1.54,1.27,2.69,2.6,3.44,3.99
	c0.68,1.24,1.24,2.9,1.69,5c0.64,3.11,1.6,5.75,2.88,7.93c0.07,0.15,0.56,0.69,1.47,1.63c0.68,0.71,1.01,1.31,1.01,1.8
	c0,0.38-0.32,0.75-0.96,1.12c-0.45,0.26-0.9,0.54-1.35,0.84c-0.68,0.04-1.79,0.19-3.33,0.45c-1.28,0.22-2.37,0.34-3.27,0.34
	c-3.91,0-6.6-1.54-8.06-4.62c-0.71-1.5-1.39-4.68-2.03-9.53c-0.56-4.06-1.52-6.69-2.88-7.89c-0.45-0.38-1-0.49-1.63-0.34
	C250.4,26.64,249.95,27.26,250.1,28.24z M250.27,10.88c-0.49,0-0.93,0.18-1.32,0.53c-0.39,0.35-0.56,0.77-0.48,1.25l0.45,5.73
	c0.07,0.97,0.41,1.45,1.01,1.45c1.13,0,2.03-0.54,2.71-1.61c0.6-0.96,0.9-2.04,0.9-3.23C253.54,12.25,252.45,10.88,250.27,10.88z"/>
<path d="M12.58,67.1l-0.68-1.91c0-1.61,1.05-2.8,3.16-3.55c1.47-0.53,3.23-0.79,5.3-0.79c3.53,0,5.84,0.23,6.93,0.68
	c0.98,0.38,1.63,1.24,1.97,2.59c0.79,2.93,1.33,4.73,1.63,5.41c0.45,1.32,0.92,2.63,1.41,3.95c0.79,1.92,1.54,2.88,2.25,2.88
	c1.01,0,1.75-1.63,2.2-4.9c0.26-2.07,0.53-4.15,0.79-6.26c0.56-1.92,1.73-3.17,3.49-3.78c1.01-0.34,2.82-0.53,5.41-0.56
	c5.86,0,8.79,1.32,8.79,3.95c0,0.68-0.54,1.62-1.61,2.82c-1.07,1.2-1.61,2.5-1.61,3.89c0,3.04,0.41,7.03,1.24,11.95
	c0.79,3.95,1.56,7.89,2.31,11.84c0.11,0.71,0.68,1.48,1.69,2.28c1.01,0.81,1.52,1.63,1.52,2.45c0,1.73-1.45,2.86-4.34,3.38
	c-1.28,0.26-3.37,1.24-6.22,1.24c-2.82,0-4.84-0.98-6.12-1.24c-2.82-0.53-4.23-1.63-4.23-3.33c0-0.53,0.18-0.98,0.54-1.35
	c0.36-0.38,0.7-0.74,1.04-1.1c0.34-0.36,0.64-1.62,0.9-3.8c0.23-1.92,0.34-3.36,0.34-4.34c0-1.95,0-2.99,0-3.1
	c-0.19-1.31-0.73-1.97-1.63-1.97c-0.45,0.04-0.85,0.7-1.18,1.97c-0.64,2.18-1,3.38-1.07,3.61c-0.56,1.32-1.28,1.97-2.14,1.97
	c-0.98,0-1.75-0.64-2.31-1.92c-0.19-0.38-0.55-1.58-1.07-3.61c-0.38-1.28-0.77-1.92-1.18-1.92c-0.94,0-1.45,2.27-1.52,6.8
	c0.34,1.27,0.64,2.1,0.9,2.47c0.49,0.53,1.01,1.09,1.55,1.69c0.54,0.6,0.82,1.2,0.82,1.8c0,1.69-0.19,2.96-0.56,3.82
	c-0.3,1.2-1.45,1.99-3.44,2.36c-0.75,0.15-1.7,0.24-2.85,0.28c-1.15,0.04-2.83,0.9-5.12,0.9c-4.21,0-7.05-1.27-8.44-2.11
	c-1.39-0.84-2.09-2.47-2.09-4.87c0-0.56,0.36-1.18,1.07-1.86c0.86-0.83,1.35-1.37,1.47-1.63c0.71-1.42,1.52-4.88,2.42-10.36
	c0.83-5.18,1.24-8.88,1.24-11.09C15.57,70.11,14.57,68.23,12.58,67.1z"/>
<path d="M126.84,71.66c-0.23-1.95-0.68-3.19-1.35-3.72c-0.34-0.19-0.81-0.47-1.41-0.84c-0.45-0.45-0.68-1.09-0.68-1.91
	c0-1.54,0.98-2.68,2.93-3.43c1.62-0.64,3.61-0.94,5.97-0.9c0.45,0,1.14,0.04,2.06,0.11c0.92,0.08,1.63,0.11,2.11,0.11
	c1.28,0,3.36-0.09,6.26-0.28c2.89-0.19,4.94-0.28,6.14-0.28c1.62,0,2.88,1.01,3.78,3.04c0.68,1.58,1.01,3.29,1.01,5.13
	c0,1.17-0.23,2.14-0.68,2.93c-0.6,0.98-1.43,1.47-2.48,1.47c-1.01,0-1.88-0.47-2.59-1.41c-1.05-1.39-1.86-2.27-2.42-2.65
	c-1.39-0.98-3.44-1.47-6.14-1.47c-0.79,0-1.2,0-1.24,0c-0.38,0.15-0.64,0.6-0.79,1.35c-0.08,0.26-0.11,0.53-0.11,0.79
	c0,1.24,0.62,2.25,1.86,3.04c1.09,0.68,2.39,1.01,3.89,1.01c0.3,0,0.67-0.21,1.1-0.62c0.43-0.41,0.8-0.62,1.1-0.62
	c0.56,0,0.85,0.41,0.85,1.24c0,1.32-0.17,2.57-0.51,3.78c-0.49,1.69-1.2,2.54-2.14,2.54c-0.6,0-1.17-0.47-1.72-1.41
	c-0.55-0.94-1.34-1.41-2.4-1.41c-1.2,0-1.8,1-1.8,2.99c0,4.7,2.72,7.05,8.17,7.05c0.23,0,0.58-0.06,1.07-0.17
	c0.49-0.11,0.86-0.13,1.13-0.06c0.26,0.04,0.49,0.06,0.68,0.06c0.94,0,1.72-0.45,2.34-1.35c0.62-0.9,1.12-1.35,1.49-1.35
	c0.56,0,1.05,0.38,1.47,1.13c0.41,0.75,0.62,1.45,0.62,2.09c0,0.38,0.05,1.34,0.14,2.9c0.09,1.56,0.14,2.85,0.14,3.86
	c0,4.58-0.97,8.02-2.85,9.37c-0.71,0.49-3.1,0.73-7.16,0.73c-1.13,0-2.67,0-4.62,0c-1.62,0.04-3.19,0.04-4.74,0l-10.6-0.06
	c-1.92-0.04-2.85-1.42-2.85-3.22c0-0.71,0.28-1.35,0.85-1.91c0.94-0.94,1.47-1.52,1.58-1.74l1.07-1.69c0.53-0.86,0.85-3,0.96-6.42
	l0.45-14.52C126.86,73.69,126.88,72.6,126.84,71.66z"/>
<path d="M174.07,84.14c0.79,5.34,1.6,8.57,2.42,9.7c0.49,0.53,1,1.09,1.52,1.69c0.53,0.6,0.79,1.2,0.79,1.8
	c0,3.08-0.77,4.98-2.31,5.69c-1.2,0.56-4.38,1.63-9.61,1.63c-4.28,0-7.16-1.19-8.57-2c-1.41-0.81-2.06-2.45-1.94-4.93
	c0.04-0.56,0.39-1.18,1.07-1.86c0.83-0.83,1.32-1.37,1.47-1.63c0.53-1.05,1.16-3.78,1.92-8.17c0.68-3.95,1.18-7.68,1.52-11.22
	c-0.11-3.83-0.62-6.12-1.52-6.88c-0.34-0.19-0.81-0.47-1.41-0.85c-0.45-0.45-0.68-1.09-0.68-1.92c0-1.54,0.98-2.69,2.93-3.44
	c1.58-0.64,3.57-0.94,5.97-0.9c0.86,0,1.65,0,2.37,0c3.34,0,5.45,0,6.31,0c3.12,0,5.86,0.62,8.23,1.86c2.93,1.5,4.4,3.67,4.4,6.52
	c0,3.56-1.92,6.39-5.75,8.49c0.38,1.16,1.18,2.02,2.42,2.59c1.84,0.83,2.78,1.24,2.82,1.24c1.54,1.27,2.69,2.6,3.44,3.99
	c0.68,1.24,1.24,2.9,1.69,5c0.64,3.11,1.6,5.75,2.88,7.93c0.07,0.15,0.56,0.69,1.47,1.63c0.68,0.71,1.01,1.31,1.01,1.8
	c0,0.38-0.32,0.75-0.96,1.12c-0.45,0.26-0.9,0.54-1.35,0.84c-0.68,0.04-1.79,0.19-3.33,0.45c-1.28,0.22-2.37,0.34-3.27,0.34
	c-3.91,0-6.6-1.54-8.06-4.62c-0.71-1.5-1.39-4.68-2.03-9.53c-0.56-4.06-1.52-6.69-2.88-7.89c-0.45-0.38-1-0.49-1.63-0.34
	C174.37,82.54,173.91,83.16,174.07,84.14z M174.23,66.77c-0.49,0-0.93,0.18-1.32,0.53c-0.39,0.35-0.56,0.77-0.48,1.25l0.45,5.73
	c0.07,0.97,0.41,1.45,1.01,1.45c1.13,0,2.03-0.54,2.71-1.61c0.6-0.96,0.9-2.04,0.9-3.23C177.5,68.15,176.41,66.77,174.23,66.77z"/>
<path d="M216.57,84.14c0.79,5.34,1.6,8.57,2.42,9.7c0.49,0.53,1,1.09,1.52,1.69c0.53,0.6,0.79,1.2,0.79,1.8
	c0,3.08-0.77,4.98-2.31,5.69c-1.2,0.56-4.44,1.63-9.67,1.63c-4.28,0-7.1-1.19-8.51-2c-1.41-0.81-2.06-2.45-1.94-4.93
	c0.04-0.56,0.39-1.18,1.07-1.86c0.83-0.83,1.32-1.37,1.47-1.63c0.53-1.05,1.16-3.78,1.92-8.17c0.68-3.95,1.18-7.68,1.52-11.22
	c-0.11-3.83-0.62-6.12-1.52-6.88c-0.34-0.19-0.81-0.47-1.41-0.85c-0.45-0.45-0.68-1.09-0.68-1.92c0-1.54,0.98-2.69,2.93-3.44
	c1.58-0.64,3.57-0.94,5.97-0.9c0.86,0,1.65,0,2.37,0c3.34,0,5.45,0,6.31,0c3.12,0,5.86,0.62,8.23,1.86c2.93,1.5,4.4,3.67,4.4,6.52
	c0,3.56-1.92,6.39-5.75,8.49c0.38,1.16,1.18,2.02,2.42,2.59c1.84,0.83,2.78,1.24,2.82,1.24c1.54,1.27,2.69,2.6,3.44,3.99
	c0.68,1.24,1.24,2.9,1.69,5c0.64,3.11,1.6,5.75,2.88,7.93c0.07,0.15,0.56,0.69,1.47,1.63c0.68,0.71,1.01,1.31,1.01,1.8
	c0,0.38-0.32,0.75-0.96,1.12c-0.45,0.26-0.9,0.54-1.35,0.84c-0.68,0.04-1.79,0.19-3.33,0.45c-1.28,0.22-2.37,0.34-3.27,0.34
	c2.35,0-6.6-1.54-8.06-4.62c-0.71-1.5-1.39-4.68-2.03-9.53c-0.56-4.06-1.52-6.69-2.88-7.89c-0.45-0.38-1-0.49-1.63-0.34
	C216.87,82.54,216.41,83.16,216.57,84.14z M216.73,66.77c-0.49,0-0.93,0.18-1.32,0.53c-0.39,0.35-0.56,0.77-0.48,1.25l0.45,5.73
	c0.07,0.97,0.41,1.45,1.01,1.45c1.13,0,2.03-0.54,2.71-1.61c0.6-0.96,0.9-2.04,0.9-3.23C220,68.15,218.91,66.77,216.73,66.77z"/>
<g>
	<path d="M88.78,92.38c0,4-1.28,7.07-3.83,9.22c-2.37,2.04-5.52,3.05-9.47,3.05c-5.15,0-9.51-2.09-13.08-6.28
		c-3.38-4-5.07-8.7-5.07-14.12c0-5.57,1.67-10.74,5.02-15.5c3.68-5.26,8.15-7.89,13.42-7.89c1.77,0,3.49,0.47,5.16,1.41
		c1.67,0.94,2.7,1.41,3.07,1.41c0.23,0,0.52-0.15,0.87-0.46c0.36-0.31,0.67-0.44,0.93-0.4c1.54,0.08,2.5,1.29,2.87,3.63
		c0.15,0.73,0.23,2.34,0.23,4.84c0,1.19-0.49,2.22-1.47,3.08c-0.98,0.86-2.03,1.3-3.16,1.3c-1.09,0-2.07-0.86-2.93-2.59
		c-0.87-1.73-1.86-2.59-2.99-2.59c-2.22,0-4.04,0.9-5.47,2.71c-1.28,1.61-1.92,3.4-1.92,5.36c0,5.34,1.97,8.01,5.92,8.01
		c0.98,0,2.53-0.66,4.65-1.99c2.12-1.33,3.52-1.99,4.2-1.99c0.41,0,0.75,0.15,1.01,0.46C88.11,84.69,88.78,87.81,88.78,92.38z"/>
</g>
<path d="M137.34,24.8c0.56-0.71,0.83-1.48,0.79-2.31c-0.08-1.24-1.65-1.86-4.73-1.86c-0.6,0-1.26,0.03-1.97,0.08
	c-0.71,0.06-1.05,0.08-1.01,0.08c-4.21,0-6.31,0.79-6.31,2.37c0,0.56,0.38,1.13,1.13,1.69c0.75,0.56,1.13,1.01,1.13,1.35
	c0,1.05-0.77,1.58-2.3,1.58c-2.69,0-4.92-0.53-6.68-1.58c-2.17-1.35-3.25-3.33-3.25-5.92c0-1.77,0.6-3.49,1.8-5.19
	c1.27-1.84,2.77-2.76,4.5-2.76c1.54,0,2.66,0.49,3.37,1.47c0.45,0.94,0.92,1.88,1.4,2.82c0.67,0.98,1.76,1.47,3.26,1.47
	c1.87,0,3.11-0.8,3.71-2.4c0.34-0.95,0.51-2.57,0.51-4.85c0-1.33-0.23-2.53-0.68-3.6c-0.6-1.41-1.5-2.11-2.71-2.11
	c-0.38,0-0.94,0.2-1.69,0.59c-0.75,0.39-1.32,0.59-1.69,0.59c-0.71,0-1.81-0.2-3.3-0.59c-1.48-0.39-2.62-0.59-3.41-0.59
	c-5.34,0-9.75,2.43-13.25,7.28c-3.16,4.36-4.74,9.27-4.74,14.73c0,5.42,1.47,10.22,4.4,14.39c3.27,4.7,7.48,7.05,12.63,7.05
	c3.42,0,6.07-0.47,7.95-1.41c0.86-0.45,2.91-1.95,6.14-4.51c0.19-0.15,0.79-0.32,1.8-0.51c1.01-0.19,1.78-0.54,2.31-1.07
	c0.23-0.23,0.34-0.71,0.34-1.47c0-1.69-0.41-4.77-1.24-9.24c-0.23-1.24-0.08-2.5,0.45-3.78C136.1,26.41,136.55,25.81,137.34,24.8z
	 M126.21,40.87c-1.32,1.32-0.82,4.12-1.65,4.12c-0.82,0-0.3-2.88-1.76-4.34c-1.46-1.46-2.69-0.16-2.69-1.43
	c0-0.72,0.85,0.08,2.47-1.54c1.62-1.62,0.88-3.62,1.7-3.62c1.09,0,0.14,1.68,1.76,3.3c1.79,1.79,3.35,1.46,3.35,1.87
	C129.39,39.88,127.52,39.55,126.21,40.87z"/>
<path d="M109.3,60.95c-1.17-0.04-2.31-0.02-3.44,0.05c-1.65,0.13-2.59,0.21-2.82,0.24c-0.56,0-1,0.02-1.3,0.05
	c-0.08,0-0.33,0-0.79,0c-2.37-0.04-4.36,0.26-5.98,0.9c-1.95,0.75-2.93,1.9-2.93,3.44c0,0.83,0.23,1.47,0.68,1.92
	c0.6,0.38,1.07,0.66,1.41,0.85c0.98,0.79,1.45,2.31,1.41,4.57v3.72c-1.09,9.81-2.18,15.8-3.27,17.98c-0.15,0.26-0.66,0.81-1.52,1.63
	c-0.68,0.68-1.01,1.3-1.01,1.86c0,1.99,0.44,3.42,1.32,4.28c0.88,0.86,2.6,1.43,5.16,1.69c2.29,0.3,4.34,0.45,6.14,0.45
	s3.25-0.15,4.34-0.45c2.14-0.19,3.59-0.71,4.34-1.58c0.75-0.86,1.13-2.46,1.13-4.79c0-0.6-0.26-1.2-0.79-1.8
	c-0.53-0.6-1.03-1.16-1.52-1.69c-0.71-0.98-1.56-4.4-2.54-10.26c0.75-0.64,2.61-1.12,5.58-1.44c2.97-0.32,5.09-0.99,6.37-2
	c2.03-1.58,3.04-4.38,3.04-8.4C122.32,65.03,117.98,61.29,109.3,60.95z M99.57,96.49c-0.87,0.87-0.54,2.72-1.09,2.72
	c-0.54,0-0.2-1.9-1.16-2.86s-1.78-0.11-1.78-0.94c0-0.48,0.56,0.05,1.63-1.01S97.76,92,98.3,92c0.72,0,0.09,1.11,1.16,2.17
	c1.18,1.18,2.21,0.96,2.21,1.23C101.67,95.84,100.44,95.62,99.57,96.49z M110.03,74.87c-0.71,1.13-1.69,1.69-2.93,1.69
	c-0.34-0.04-0.55-0.07-0.62-0.11c-0.45-0.23-0.69-0.56-0.7-1.01c-0.02-0.45-0.05-0.9-0.08-1.35c-0.08-0.83-0.11-2.57-0.11-5.24
	c0-1.28,0.47-1.92,1.41-1.92c2.67,0,4,1.5,4,4.51C110.99,72.71,110.67,73.86,110.03,74.87z"/>
<path d="M267.45,60.86c-5.94,0-8.91,1.45-8.91,4.36c0,0.83,0.23,1.47,0.68,1.93c0.38,0.26,0.63,0.43,0.76,0.51
	c0.13,0.08,0.2,0.17,0.2,0.28c0,0.23-0.17,0.68-0.51,1.36c-0.45,0.91-0.77,1.7-0.96,2.38c-0.83,1.36-1.52,2.04-2.09,2.04
	c-1.54,0-2.54-1.17-2.99-3.51c-0.11-0.57-0.07-1.09,0.14-1.59c0.21-0.49,0.5-0.89,0.87-1.19c0.38-0.3,0.73-0.62,1.07-0.96
	c0.34-0.34,0.51-0.89,0.51-1.64c0-1.25-0.56-2.17-1.69-2.77c-1.39-0.75-3.74-1.15-7.05-1.19c-2.41-0.04-4.4,0.26-5.97,0.91
	c-1.95,0.76-2.93,1.91-2.93,3.45c0,0.83,0.21,1.47,0.62,1.93c0.6,0.38,1.07,0.66,1.41,0.85l1.8,1.3c0.71,0.53,1.26,1.04,1.63,1.53
	c0.94,1.89,1.75,3.45,2.42,4.7c0.38,1.02,0.92,2.04,1.63,3.06c0.56,0.83,0.85,1.32,0.85,1.47c-0.15,1.7-0.51,4.13-1.07,7.3
	c-0.64,3.7-1.2,6.04-1.69,7.02c-0.15,0.26-0.66,0.81-1.52,1.64c-0.68,0.68-1.01,1.3-1.01,1.87c0,2.42,0.69,4.05,2.09,4.9
	c1.39,0.85,4.19,1.27,8.4,1.27c5.22,0,8.42-0.28,9.58-0.85c1.58-0.72,2.37-2.62,2.37-5.72c0-0.6-0.26-1.21-0.79-1.81
	c-0.53-0.6-1.03-1.17-1.52-1.7c-0.87-1.17-1.86-5.49-2.99-12.97c0-0.38,0-0.7,0-0.96c0-1.36,0.68-2.93,2.03-4.7
	c0.53-0.72,1.88-2.26,4.06-4.64c0.6-0.83,1.08-1.38,1.44-1.64c0.36-0.26,1.23-0.66,2.62-1.19c0.9-0.38,1.51-0.7,1.83-0.96
	c0.32-0.26,0.66-0.57,1.01-0.91c0.36-0.34,0.54-0.89,0.54-1.64C274.32,62.03,272.03,60.86,267.45,60.86z M254.95,95.64
	c-1.21,1.21-0.75,3.77-1.51,3.77s-0.28-2.64-1.61-3.97s-2.46-0.15-2.46-1.31c0-0.66,0.78,0.08,2.26-1.41
	c1.48-1.48,0.8-3.32,1.56-3.32c1,0,0.13,1.53,1.61,3.02c1.63,1.63,3.07,1.33,3.07,1.71C257.87,94.74,256.16,94.44,254.95,95.64z"/>
</svg>
