<?xml version="1.0" encoding="UTF-8"?>
<svg id="Layer_1" xmlns="http://www.w3.org/2000/svg" version="1.1" viewBox="0 0 12 12">
  <!-- Generator: Adobe Illustrator 29.6.0, SVG Export Plug-In . SVG Version: 2.1.1 Build 207)  -->
  <defs>
    <style>
      .st0 {
        fill: #4c3b97;
      }
    </style>
  </defs>
  <path class="st0" d="M1.3,2.67l-.15-.42c0-.35.23-.61.69-.78.32-.11.71-.17,1.16-.17.77,0,1.28.05,1.52.15.21.08.36.27.43.57.17.64.29,1.04.36,1.18.1.29.2.58.31.86.17.42.34.63.49.63.22,0,.38-.36.48-1.07.06-.45.12-.91.17-1.37.12-.42.38-.69.76-.83.22-.07.62-.12,1.18-.12,1.28,0,1.92.29,1.92.86,0,.15-.12.35-.35.62-.23.26-.35.55-.35.85,0,.67.09,1.54.27,2.61.17.86.34,1.73.51,2.59.02.16.15.32.37.5.22.18.33.36.33.54,0,.38-.32.62-.95.74-.28.06-.73.09-1.36.09s-1.06-.03-1.34-.09c-.62-.12-.92-.36-.92-.73,0-.12.04-.21.12-.3.08-.08.15-.16.23-.24.07-.08.14-.36.2-.83.05-.42.07-.74.07-.95v-.68c-.04-.29-.16-.43-.36-.43-.1,0-.18.15-.26.43-.14.48-.22.74-.23.79-.12.29-.28.43-.47.43-.21,0-.38-.14-.51-.42-.04-.08-.12-.35-.23-.79-.08-.28-.17-.42-.26-.42-.21,0-.32.5-.33,1.49.07.28.14.46.2.54.11.11.22.24.34.37.12.13.18.26.18.39,0,.37-.04.65-.12.84-.07.26-.32.43-.75.52-.16.03-.37.05-.62.06-.25,0-.63.01-1.13.01-.92,0-1.53-.09-1.84-.28-.3-.18-.46-.54-.46-1.07,0-.12.08-.26.23-.41.19-.18.3-.3.32-.36.16-.31.33-1.07.53-2.27.18-1.13.27-1.94.27-2.43,0-.57-.22-.99-.65-1.23Z"/>
</svg>